# xmcd
#
# Track frame offsets:
#	182
#	14200
#	26387
#	38062
#	51377
#	63745
#	78305
#	89437
#	99492
#	110110
#	120502
#	131907
#
# Disc length: 1935
#
# Revision: 3
# Processed by: cddbd v1.5.1PL0 Copyright (c) Steve Scherf et al.
# Submitted via: audiograbber 1.80
# Normalized: r2:DSETVAR1
#
DISCID=a8078d0c
DTITLE=Various Artist - Country Collection Vol 2
DYEAR=1900
DGENRE=Country
TTITLE0=Willie Nelson - Home Is Where You're Happy
TTITLE1=Spears, Billie Jo - Look What They've Done To My Song
TTITLE2=Dolly Parton - Makin' Believe
TTITLE3=Kenny Rogers - Ruby, Don't Take Your Love To Town
TTITLE4=Faron Young - Sweet Dreams
TTITLE5=Patsy Cline - Then You'll Know
TTITLE6=Stonewall Jackson - Things To Talk About
TTITLE7=Willie Nelson - I Didn't Sleep A Wink
TTITLE8=Ferlin Husky - Wings Of A Dove
TTITLE9=Waylon Jennings - White Lightning
TTITLE10=George Jones - I'm Wasting Good Paper
TTITLE11=Raindrops - B. J. Thomas
EXTD=ID3G:   2
EXTT0=
EXTT1=
EXTT2=
EXTT3=
EXTT4=
EXTT5=
EXTT6=
EXTT7=
EXTT8=
EXTT9=
EXTT10=
EXTT11=
PLAYORDER=
